<?xml version="1.0" encoding="utf-8"?>
<!-- Generator: Adobe Illustrator 21.0.2, SVG Export Plug-In . SVG Version: 6.00 Build 0)  -->
<svg version="1.1" xmlns="http://www.w3.org/2000/svg" xmlns:xlink="http://www.w3.org/1999/xlink" x="0px" y="0px"
	 viewBox="0 0 473.2 473.2" style="enable-background:new 0 0 473.2 473.2;" xml:space="preserve">
<g id="Capa_1">
	<g>
		<path d="M227.6,217.3c-4.1,0-7.4,3.3-7.4,7.4v28.2c0,4.1,3.3,7.4,7.4,7.4s7.4-3.3,7.4-7.4v-28.2
			C235,220.6,231.7,217.3,227.6,217.3z"/>
		<path d="M248.8,217.3c-4.1,0-7.4,3.3-7.4,7.4v28.2c0,4.1,3.3,7.4,7.4,7.4c4.1,0,7.4-3.3,7.4-7.4v-28.2
			C256.2,220.6,252.9,217.3,248.8,217.3z"/>
		<path d="M413.4,69.9c0.2-18.8-7-36.4-20.3-49.6C380.1,7.2,362.7,0,344.3,0c-3.4,0-6.5,2-7.8,5.2c-1.3,3.2-0.6,6.8,1.7,9.2
			l21.6,22.2c6.2,6.4,9.6,14.7,9.6,23.6c0,9-3.5,17.5-9.9,23.9c-6.4,6.4-14.9,9.9-23.9,9.9h-25.3v-2.4c0-2.3-1-4.4-2.8-5.8
			c-1.8-1.4-4.1-1.9-6.3-1.4l-18,4.1c-3.9-5.6-9.8-9.6-16.6-11.2c-8.9-2.1-18.3,0.4-25.1,6.6c-1.9,1.7-4.7,1.7-6.6,0
			c-6.8-6.2-16.2-8.6-25.1-6.6C203,79,197.1,83,193.2,88.6l-18-4.1c-2.2-0.5-4.5,0-6.3,1.4c-1.8,1.4-2.8,3.5-2.8,5.8v2.4h-25.3
			c-18.7,0-33.9-15.2-33.9-33.9c0-4.4,0.8-8.7,2.5-12.7c1.7-4.1,4-7.7,7.1-10.9l22.2-22.8c2.3-2.4,2.9-5.8,1.7-8.9
			c-1.3-3-4.2-5-7.5-5c-38.1,0-69.5,30.6-70,68.3c-0.2,18.8,6.9,36.4,20.2,49.7c8.4,8.4,18.5,14.3,29.6,17.5v11
			c-19.1,21.4-18.4,54.4,2.2,75c1.4,1.4,3.3,2.2,5.2,2.2s3.8-0.8,5.2-2.2c20.6-20.6,21.3-53.5,2.2-75V138c1.4,0.1,2.9,0.2,4.4,0.2
			h34.2v1c0,4.1,3.3,7.4,7.4,7.4h0.6l-2.5,8.3c-4.4,2.5-7.9,6.5-9.6,11.4c-2.3,6.2-1.6,13,1.9,18.6l16.3,26.6v36
			c0,9.7,3.3,19.3,9.3,26.9l7.1,9.1c5.7,7.3,8.9,16.4,8.9,25.7v14c0,13.4,10.9,24.2,24.2,24.2h16.9c13.4,0,24.2-10.9,24.2-24.2v-14
			c0-9.3,3.2-18.4,8.9-25.7l7.1-9.1c6-7.6,9.3-17.2,9.3-26.9v-36l16.3-26.6c3.5-5.6,4.1-12.4,1.9-18.6c-1.8-4.9-5.2-8.9-9.6-11.4
			l-2.5-8.3h0.6c4.1,0,7.4-3.3,7.4-7.4v-1h33.5c1.7,0,3.4-0.1,5.1-0.2v8.4c-19.1,21.4-18.4,54.4,2.2,75c1.4,1.4,3.3,2.2,5.2,2.2
			c2,0,3.8-0.8,5.2-2.2c20.6-20.6,21.3-53.5,2.2-75v-11.2C392.1,126.8,413.1,100.7,413.4,69.9z M120.1,204.4
			c-8.5-13.1-8.5-30.3,0-43.4C128.7,174.2,128.7,191.3,120.1,204.4z M117.2,121.3c-3.3-0.9-6.4-2.1-9.5-3.7l11.8-13.6
			c2.6,1.3,5.3,2.3,8.1,3.1L117.2,121.3z M77.7,68.5c0.3-23,15.3-42.7,36.1-50.3l-7.9,8.1c-4.4,4.5-7.8,9.8-10.2,15.6
			c-2.4,5.8-3.6,12-3.6,18.3c0,13.9,5.8,26.4,15.2,35.2l-11.9,13.7c-0.6-0.6-1.2-1.1-1.8-1.7C83.2,97.1,77.6,83.2,77.7,68.5z
			 M134,123.3l10.5-14.4h21.6v14.4H134z M291.8,174.6l7.3-5.4c0.6,0.6,1,1.4,1.4,2.2c0.4,1,0.5,2.1,0.4,3.1
			C297.8,174.8,294.8,174.8,291.8,174.6z M175.6,174.4c-0.1-1,0-2.1,0.4-3.1c0.3-0.8,0.8-1.6,1.4-2.2l7.3,5.4
			C181.6,174.8,178.6,174.8,175.6,174.4z M282.4,205.6c-0.7,1.2-1.1,2.5-1.1,3.9v38.1c0,6.4-2.2,12.7-6.1,17.8l-7.1,9.1
			c-7.7,9.9-12,22.3-12,34.9v14c0,5.2-4.2,9.4-9.4,9.4h-1.1v-31.9c0-4.1-3.3-7.4-7.4-7.4s-7.4,3.3-7.4,7.4v31.9h-1.1
			c-5.2,0-9.4-4.2-9.4-9.4v-14c0-12.6-4.3-25-12-34.9l-7.1-9.1c-3.9-5-6.1-11.4-6.1-17.8v-38.1c0-1.4-0.4-2.7-1.1-3.9l-9.9-16.1
			c5-0.3,9.9-1.2,14.7-2.7c0,0.3,0.1,0.5,0.1,0.7c0,0.9-0.2,2.5-1.8,3.7c-3.2,2.5-3.8,7.2-1.2,10.4c1.5,1.9,3.6,2.8,5.8,2.8
			c1.6,0,3.2-0.5,4.6-1.6c4.8-3.8,7.5-9.4,7.4-15.5c-0.1-6.1-2.9-11.7-7.8-15.3l-19.4-14.5l4.9-16.1c0.7-2.2,0.3-4.7-1.1-6.6
			c-1.4-1.9-3.6-3-5.9-3H181V101l14.4,3.3c3.6,0.8,7.2-1.1,8.5-4.5c1.6-4,5-6.9,9.2-7.9c4.2-1,8.5,0.1,11.8,3.1
			c7.6,6.9,19,6.9,26.6,0c3.2-2.9,7.5-4.1,11.8-3.1c4.3,1,7.6,3.9,9.2,7.9c1.3,3.4,5,5.3,8.5,4.5l14.4-3.3v30.8h-3.2
			c-2.3,0-4.6,1.1-5.9,3c-1.4,1.9-1.8,4.3-1.1,6.6l4.9,16.1l-19.4,14.5c-4.9,3.6-7.7,9.2-7.8,15.3c-0.1,6.1,2.6,11.7,7.4,15.5
			c1.4,1.1,3,1.6,4.6,1.6c2.2,0,4.4-1,5.8-2.8c2.5-3.2,2-7.9-1.2-10.4c-1.6-1.2-1.8-2.8-1.8-3.7c0-0.2,0-0.4,0.1-0.7
			c4.7,1.5,9.7,2.4,14.7,2.7L282.4,205.6z M356.2,204.4c-8.5-13.1-8.5-30.3,0-43.4C364.7,174.2,364.7,191.3,356.2,204.4z
			 M348.9,107.1c2.7-0.8,5.4-1.8,8-3l11.6,13.4c-2.9,1.5-6,2.7-9.2,3.6L348.9,107.1z M370.4,26.3l-8.3-8.5c7.6,2.7,14.6,7,20.5,12.9
			c10.4,10.4,16.1,24.3,15.9,39c-0.2,15.5-7,29.5-17.9,39.3l-11.7-13.5c0.3-0.3,0.6-0.6,0.9-0.9c9.2-9.2,14.3-21.4,14.3-34.4
			C384.2,47.5,379.3,35.4,370.4,26.3z M310.2,108.9h21.6l10.7,14.4h-32.2V108.9z"/>
		<path d="M245.6,181.3v-57.8c0-4.1-3.3-7.4-7.4-7.4s-7.4,3.3-7.4,7.4v57.8c0,4.1,3.3,7.4,7.4,7.4S245.6,185.4,245.6,181.3z"/>
	</g>
</g>
<g id="Laag_2">
	<g>
		<path d="M115.3,384.8c0.8-4.5,2.3-8.2,4.4-11.1c2.1-2.9,5.1-5,8.8-6.2c1.2-0.8,3.4-1.2,6.6-1.2c3.2,0,6.2,0.4,9.1,1.2
			c3.3,0.8,5.3,1.8,5.9,2.9c0.6,1.1,0.3,2.9-0.9,5.3c-1.3,2.1-2.5,3.4-3.5,3.8c-1.1,0.5-2.7,0.3-4.7-0.5c-1.7-0.4-3.3-0.6-4.9-0.5
			c-1.6,0.1-3,0.5-4.2,1.3c-0.6,0.2-1.3,0.8-2,1.5c-0.7,0.8-1.3,1.7-1.9,2.7c-0.6,1-1,2.1-1.4,3.3c-0.3,1.2-0.5,2.3-0.5,3.3
			c0,2.5,1.3,5.8,3.8,9.9c2.5,4.1,5.7,7.9,9.4,11.6c0.8,0.8,1.9,2.2,3.5,4c1.5,1.8,3.1,3.5,4.8,5.1c1.6,2.3,3,4.4,4.1,6.4
			c1.1,1.9,2,3.9,2.7,5.9c0.7,2,1.1,4.2,1.3,6.4c0.2,2.3,0.3,4.8,0.1,7.7c0,5-0.6,8.9-1.9,11.7c-1.3,2.8-3.1,5.3-5.6,7.4
			c-0.9,0.9-2.1,1.7-3.7,2.4c-1.6,0.7-3.2,1.4-5,1.9c-1.8,0.6-3.6,1-5.4,1.4c-1.8,0.4-3.5,0.7-4.9,0.8c-0.9,0-1.9-0.1-3.2-0.4
			c-1.2-0.3-2.5-0.6-3.8-1.1c-1.3-0.4-2.5-1-3.7-1.6c-1.1-0.6-2-1.2-2.6-1.9c-0.6-0.4-1.4-1.1-2.1-2c-0.8-0.9-1.5-1.9-2.1-3
			c-0.6-1-1.1-2-1.4-2.9c-0.3-0.9-0.4-1.6-0.1-2c0.1-0.6,0.8-1.1,2.1-1.5c1.2-0.4,2.5-0.6,3.8-0.7c1.3-0.1,2.5,0,3.5,0.2
			c1,0.2,1.5,0.6,1.3,1.2c0,0.2,0.3,0.5,0.9,0.8c0.6,0.3,1.4,0.5,2.4,0.8c1,0.3,2.1,0.5,3.3,0.6c1.2,0.1,2.3,0.2,3.3,0.2
			c1.6,0.4,3.4,0.2,5.2-0.7c1.9-0.9,3.4-1.8,4.7-2.6c2.1-2.1,3.2-5.1,3.3-9.1c0.1-4-0.4-7.8-1.7-11.6c-0.4-0.6-1.3-1.7-2.6-3.4
			c-1.3-1.7-2.7-3.5-4.2-5.4c-1.6-1.9-3.1-3.8-4.6-5.5c-1.5-1.7-2.6-3.1-3.4-4c-0.6-0.6-1.4-1.4-2.3-2.5c-0.9-1.1-1.8-2.2-2.7-3.4
			c-0.9-1.2-1.7-2.4-2.5-3.5c-0.8-1.2-1.3-2.2-1.7-3.1c-2.1-3.7-3.3-7-3.8-10C114.2,392.4,114.4,388.9,115.3,384.8z"/>
		<path d="M168.1,369.2c0.9-0.4,1.7-0.9,2.4-1.3c0.7-0.4,1.1-0.9,1.1-1.3c0.9-0.2,2-0.3,3.5-0.3c1.4,0,3,0,4.6,0.1
			c1.6,0.1,3.3,0.3,5,0.5c1.7,0.2,3.2,0.4,4.5,0.6c3.1,0.9,5.8,2.2,8.4,3.8c2.5,1.7,4.4,3.6,5.8,5.8c0.4,0.7,0.8,1.4,1,2.2
			s0.4,1.7,0.5,3c0.1,1.2,0.2,2.7,0.2,4.6c0,1.9,0,4.2,0,7c0.2,3.5,0.3,6.5,0.3,9c0,2.4-0.1,4.5-0.4,6.1c-0.3,1.6-0.7,3-1.3,4
			c-0.5,1.1-1.3,2-2.1,2.9c-1.3,1.8-3.1,3.1-5.4,4.1c-2.3,0.9-5.2,1.6-8.7,2.1c-1.8,0.4-3.3,0.7-4.5,0.9c-1.2,0.1-2.1,0.4-2.5,0.9
			c-0.4,0.9-0.9,2.7-1.2,5.5c-0.4,2.8-0.6,7.7-0.6,14.8c-0.4,5.1-0.9,9.4-1.2,12.9c-0.4,3.5-0.7,6.4-1,8.6c-0.3,2.2-0.6,3.9-1,5.1
			c-0.3,1.2-0.7,2-1.1,2.4c-0.4,0-1.2,0-2.3-0.1c-1.1-0.1-3-0.3-5.7-0.8c-0.4,0-1-0.2-1.7-0.6c-0.7-0.4-1-0.8-1-1.2
			c0-0.4,0-1.8,0.1-4.2c0.1-2.3,0.3-5.1,0.8-8.2c0.2-1.9,0.4-4.2,0.5-7c0.1-2.7,0.2-6,0.3-9.9c0-3.8,0.1-8.4,0.1-13.6
			c0-5.2,0-11.2,0-18.1c0.2-9.5,0.4-16.8,0.5-21.9c0.1-5.1,0.3-9,0.4-11.5c0.1-2.5,0.4-4.2,0.6-4.9
			C167.3,370.7,167.7,369.9,168.1,369.2z M191.9,384.2c-0.4-0.9-1.2-1.6-2.4-2.1c-1.2-0.5-2.4-1-3.7-1.4c-1.3-0.4-2.8-1-4.4-1.8
			c-0.7,0.7-1.3,1.3-1.8,1.8c-0.2,0.4-0.5,0.9-0.7,1.5c-0.2,0.5-0.4,1.3-0.5,2.3c-0.1,1-0.2,2.3-0.1,4c0,1.6,0.2,3.7,0.4,6.4
			c0.2,3.8,0.4,6.8,0.7,8.9c0.3,2.1,0.7,3.7,1.1,4.7c0.5,1,1.2,1.5,2,1.6c0.8,0.1,1.9,0,3.3-0.2c1.7-0.2,3.1-0.4,4-0.7
			c1-0.3,1.7-0.9,2.1-1.8c0.4-0.9,0.7-2.2,0.8-3.8c0.1-1.6,0.1-3.9,0.1-6.8c0-3.1-0.1-5.8-0.4-8.1S191.9,384.7,191.9,384.2z"/>
		<path d="M213.6,387.8c0.4-6.7,0.6-11.6,0.7-14.6c0.1-3,0.4-4.7,0.8-5.2c0.4-0.7,0.9-1.3,1.6-1.7c0.7-0.4,2-0.6,4-0.6
			c1.6,0,2.9,0.2,4,0.5c1.1,0.3,1.9,0.7,2.3,1.1c0.1,0.4,0.2,1.9,0.2,4.5c0,2.5-0.1,5.7-0.2,9.6c-0.1,3.8-0.4,8.1-0.7,12.9
			c-0.3,4.7-0.6,9.5-1,14.2c0,1.4,0,3.3-0.1,5.6c-0.1,2.3-0.2,4.8-0.3,7.6c-0.1,2.8-0.2,5.7-0.3,8.7c-0.1,3-0.1,6-0.1,9
			c-0.2,4.4-0.5,8-0.7,10.9c-0.2,2.9-0.4,5.3-0.6,7.3c-0.2,1.9-0.4,3.6-0.6,4.9c-0.2,1.3-0.4,2.5-0.5,3.7c-0.4,1.6-1,3-1.6,4.1
			c-0.6,1.1-1.1,1.9-1.5,2.3c-0.8,0.4-1.9,0.6-3.2,0.4c-1.4-0.1-2.4-0.8-3.1-2c-0.4-0.3-0.8-0.7-1-1.1c-0.2-0.4-0.3-1.2-0.4-2.4
			c-0.1-1.2-0.1-3-0.1-5.4c0-2.4,0-5.8,0-10.2c0-2.4,0-5,0-7.8c0-2.8,0-5.7,0-8.5c0-2.8,0.1-5.5,0.2-8.1c0.1-2.6,0.3-4.7,0.6-6.5
			c0.1-1.9,0.3-4.3,0.5-7c0.2-2.8,0.4-5.6,0.5-8.6c0.1-3,0.3-6,0.4-9.1C213.6,393.2,213.6,390.4,213.6,387.8z"/>
		<path d="M236.3,369.9c0.4-0.8,1.2-1.6,2.1-2.3c1-0.7,1.7-1.1,2.1-1.1c0.8-0.2,2.4-0.3,4.7-0.3c2.3,0,4.7,0,7.2,0.1
			c2.6,0.1,5,0.3,7.3,0.4c2.3,0.2,3.9,0.4,4.8,0.6c3.8,0.9,7.1,2.9,9.8,5.9c2.7,3.1,4.2,6.5,4.7,10.3c0.2,1.1,0.2,2.4,0,4
			c-0.2,1.6-0.5,3.3-0.9,5c-0.4,1.7-1,3.4-1.6,5c-0.6,1.6-1.2,2.9-1.8,4c-0.9,1.3-2.3,2.8-4.2,4.3c-1.9,1.6-3.9,3-6,4.3
			c-0.4,0.4-0.6,1-0.4,1.6c0.2,0.6,1.2,1.8,2.9,3.5c0.8,0.9,1.8,2.1,2.8,3.5c1.1,1.5,1.8,2.9,2.3,4.1c0.8,1.5,1.7,3.9,2.5,7.1
			c0.8,3.2,1.6,6.8,2.3,10.7c0.7,3.9,1.3,8,1.8,12.3c0.5,4.2,0.9,8.2,1.1,11.8c0,1.9,0,3.4-0.1,4.5c-0.1,1.1-0.3,1.8-0.6,2.3
			c-0.3,0.5-0.8,0.7-1.5,0.8c-0.7,0.1-1.7,0.1-2.9,0.1c-1.5,0.2-2.7,0.3-3.5,0.3c-0.8,0-1.5-0.6-2-1.6c-0.5-1-0.9-2.7-1.1-5
			c-0.3-2.3-0.6-5.6-1-9.9c-0.7-5.8-1.4-10.6-2.1-14.6c-0.7-4-1.5-7.4-2.5-10.2c-1-2.8-2.1-5.2-3.4-7.2c-1.3-2-2.9-3.8-4.8-5.5
			c-2.2-2.1-3.8-3.3-4.8-3.5c-1.1-0.2-2,0.1-2.8,1c-0.4,0.4-0.8,2.8-1.2,7.2c-0.3,4.3-0.5,10.8-0.5,19.3c0,6.4,0,11.3-0.1,14.8
			c-0.1,3.5-0.3,6-0.6,7.6c-0.3,1.6-0.8,2.5-1.5,2.8c-0.7,0.2-1.7,0.4-2.9,0.4c-1.3,0-2.3,0-3-0.1c-0.7,0-1.2-0.2-1.6-0.5
			c-0.4-0.3-0.6-0.8-0.8-1.5c-0.2-0.7-0.4-1.7-0.6-3c0-0.6,0-2.3,0-5.1c0-2.8,0-6.4,0-10.7c0-4.3,0-9.2,0-14.7c0-5.5,0-11.2,0-17.3
			c0-10.4,0-18.5,0-24.2s0.1-9.9,0.2-12.7c0.1-2.8,0.4-4.7,0.7-5.6C235.1,371.7,235.6,370.8,236.3,369.9z M267.1,383.6
			c-0.4-0.8-0.9-1.5-1.5-2.1c-0.6-0.6-1.5-1.3-2.8-2.2c-0.9-0.2-2.2-0.4-3.9-0.6c-1.7-0.2-3.5-0.3-5.3-0.4c-1.8-0.1-3.4-0.2-5-0.1
			c-1.5,0-2.5,0.1-2.8,0.3c0,0.4,0,1.7,0,3.7s0,4.5,0,7.4c0,3.3,0,5.7,0.1,7.4c0,1.7,0.3,2.9,0.7,3.6c0.4,0.7,1.1,1,2,0.9
			c0.9-0.1,2.2-0.4,4-0.9c2.5-0.4,4.9-1.2,7.2-2.3c2.3-1.1,3.9-2.3,4.8-3.7c0.4-0.4,0.7-1.1,1-2c0.3-1,0.6-2,0.8-3.1
			c0.2-1.1,0.4-2.2,0.5-3.3C267,385.2,267.1,384.3,267.1,383.6z"/>
		<path d="M289,387.8c0.4-6.7,0.6-11.6,0.7-14.6c0.1-3,0.4-4.7,0.8-5.2c0.4-0.7,0.9-1.3,1.6-1.7c0.7-0.4,2-0.6,4-0.6
			c1.6,0,2.9,0.2,4,0.5c1.1,0.3,1.9,0.7,2.3,1.1c0.1,0.4,0.2,1.9,0.2,4.5c0,2.5-0.1,5.7-0.2,9.6c-0.1,3.8-0.4,8.1-0.7,12.9
			c-0.3,4.7-0.6,9.5-1,14.2c0,1.4-0.1,3.3-0.1,5.6c-0.1,2.3-0.2,4.8-0.3,7.6c-0.1,2.8-0.2,5.7-0.3,8.7c0,3-0.1,6-0.1,9
			c-0.2,4.4-0.5,8-0.7,10.9c-0.2,2.9-0.4,5.3-0.6,7.3c-0.2,1.9-0.4,3.6-0.6,4.9c-0.2,1.3-0.4,2.5-0.5,3.7c-0.4,1.6-1,3-1.6,4.1
			c-0.6,1.1-1.1,1.9-1.5,2.3c-0.8,0.4-1.9,0.6-3.2,0.4c-1.4-0.1-2.4-0.8-3.1-2c-0.4-0.3-0.8-0.7-1-1.1c-0.2-0.4-0.3-1.2-0.4-2.4
			c-0.1-1.2-0.1-3-0.1-5.4c0-2.4,0-5.8,0-10.2c0-2.4,0-5,0-7.8c0-2.8,0-5.7,0-8.5c0-2.8,0.1-5.5,0.2-8.1c0.1-2.6,0.3-4.7,0.6-6.5
			c0.1-1.9,0.3-4.3,0.5-7c0.2-2.8,0.4-5.6,0.5-8.6c0.1-3,0.3-6,0.4-9.1C289,393.2,289,390.4,289,387.8z"/>
		<path d="M310.8,368.9c0.1,0,0.6,0,1.4-0.1c0.8-0.1,2.2-0.2,4-0.4c1.9-0.2,4.4-0.4,7.5-0.7c3.2-0.3,7.2-0.7,12-1.1
			c0.8,0,2.6,0,5.4,0c2.8,0,5.9,0,9.1,0c3-0.1,5.3-0.2,7-0.2c1.6,0,2.8,0.3,3.6,0.7c0.7,0.4,1.2,1.1,1.3,2.1
			c0.1,0.9,0.2,2.2,0.2,3.8c0,1.5-0.1,2.6-0.2,3.4c-0.1,0.8-0.5,1.4-1.1,1.8c-0.6,0.4-1.6,0.7-2.9,0.9c-1.3,0.2-3.2,0.3-5.5,0.5
			c-2.1,0.2-3.6,0.5-4.7,0.8c-1.1,0.3-1.9,1-2.5,2.1c-0.6,1.1-0.9,2.8-1.1,5.1c-0.2,2.3-0.4,5.6-0.5,9.8c-0.2,2.5-0.4,5.5-0.6,9.1
			c-0.1,3.6-0.2,7.4-0.2,11.5c0,4.1,0,8.3,0,12.6c0,4.3,0,8.3,0,12.2c0,10.1,0,17.2-0.1,21.4c-0.1,4.2-0.3,6.5-0.7,6.9
			c-0.2,0.4-0.9,0.8-1.8,1.1c-1,0.3-2.1,0.5-3.3,0.7c-1.2,0.1-2.4,0.2-3.5,0.2c-1.2,0-2-0.1-2.6-0.4c-0.2-0.1-0.4-0.8-0.6-1.8
			c-0.1-1.1-0.2-3.2-0.2-6.3c0-3.1,0-7.5,0-13.1c0-5.6,0-13.1,0-22.4c0-5.6,0-11.1,0.1-16.3c0-5.3,0.1-10,0.3-14.1
			c0.1-4.1,0.2-7.5,0.3-10.2c0.1-2.7,0.1-4.2,0.1-4.7c0.1-0.8,0.2-1.4,0.2-1.8c0-0.4-0.3-0.7-0.9-0.9c-0.6-0.1-1.5-0.2-2.8-0.1
			c-1.3,0.1-3.1,0.2-5.5,0.4c-2.9,0.2-5.1,0.3-6.6,0.3c-1.6,0-2.7-0.3-3.4-0.7c-0.7-0.4-1.2-1.2-1.5-2.1c-0.2-1-0.4-2.3-0.6-3.9
			c-0.4-2-0.5-3.4-0.3-4C310,369.9,310.3,369.3,310.8,368.9z"/>
	</g>
</g>
</svg>
