<?xml version="1.0" encoding="utf-8"?>
<!-- Generator: Adobe Illustrator 21.0.2, SVG Export Plug-In . SVG Version: 6.00 Build 0)  -->
<svg version="1.1" xmlns="http://www.w3.org/2000/svg" xmlns:xlink="http://www.w3.org/1999/xlink" x="0px" y="0px"
	 viewBox="0 0 473.2 345.3" style="enable-background:new 0 0 473.2 345.3;" xml:space="preserve">
<style type="text/css">
	.st0{display:none;}
	.st1{display:inline;}
	.st2{fill:#323B43;}
	.st3{fill:#575756;}
	.st4{fill:#FFFFFF;}
	.st5{fill:#C6C6C5;}
</style>
<g id="Laag_1" class="st0">
	<g id="Capa_1" class="st1">
		<g>
			<path class="st2" d="M223.2,276.4c-5.5,0-9.9,4.4-9.9,9.9v37.6c0,5.5,4.4,9.9,9.9,9.9s9.9-4.4,9.9-9.9v-37.6
				C233,280.8,228.7,276.4,223.2,276.4z"/>
			<path class="st2" d="M251.4,276.4c-5.5,0-9.9,4.4-9.9,9.9v37.6c0,5.5,4.4,9.9,9.9,9.9s9.9-4.4,9.9-9.9v-37.6
				C261.3,280.8,256.9,276.4,251.4,276.4z"/>
			<path class="st2" d="M470.8,80c0.3-25.1-9.3-48.5-27.1-66.1c-17.3-17.5-40.5-27.1-65-27.1c-4.5,0-8.7,2.7-10.4,6.9
				c-1.7,4.3-0.8,9.1,2.3,12.3l28.8,29.6c8.3,8.5,12.8,19.6,12.8,31.5c0,12-4.7,23.3-13.2,31.9s-19.9,13.2-31.9,13.2h-33.7V109
				c0-3.1-1.3-5.9-3.7-7.7c-2.4-1.9-5.5-2.5-8.4-1.9l-24,5.5c-5.2-7.5-13.1-12.8-22.1-14.9c-11.9-2.8-24.4,0.5-33.5,8.8
				c-2.5,2.3-6.3,2.3-8.8,0c-9.1-8.3-21.6-11.5-33.5-8.8c-9.1,2.3-16.9,7.6-22.1,15.1l-24-5.5c-2.9-0.7-6,0-8.4,1.9
				s-3.7,4.7-3.7,7.7v3.2h-33.7c-24.9,0-45.2-20.3-45.2-45.2c0-5.9,1.1-11.6,3.3-16.9c2.3-5.5,5.3-10.3,9.5-14.5l29.6-30.4
				c3.1-3.2,3.9-7.7,2.3-11.9c-1.7-4-5.6-6.7-10-6.7c-50.8,0-92.6,40.8-93.3,91c-0.3,25.1,9.2,48.5,26.9,66.2
				c11.2,11.2,24.7,19.1,39.4,23.3V182c-25.5,28.5-24.5,72.5,2.9,100c1.9,1.9,4.4,2.9,6.9,2.9s5.1-1.1,6.9-2.9
				c27.5-27.5,28.4-71.3,2.9-100v-11.2c1.9,0.1,3.9,0.3,5.9,0.3h45.6v1.3c0,5.5,4.4,9.9,9.9,9.9h0.8l-3.3,11.1
				c-5.9,3.3-10.5,8.7-12.8,15.2c-3.1,8.3-2.1,17.3,2.5,24.8l21.7,35.4v48c0,12.9,4.4,25.7,12.4,35.8l9.5,12.1
				c7.6,9.7,11.9,21.9,11.9,34.3v18.7c0,17.9,14.5,32.3,32.3,32.3h22.5c17.9,0,32.3-14.5,32.3-32.3V399c0-12.4,4.3-24.5,11.9-34.3
				l9.5-12.1c8-10.1,12.4-22.9,12.4-35.8v-48l21.7-35.4c4.7-7.5,5.5-16.5,2.5-24.8c-2.4-6.5-6.9-11.9-12.8-15.2l-3.3-11.1h0.8
				c5.5,0,9.9-4.4,9.9-9.9v-1.3H378c2.3,0,4.5-0.1,6.8-0.3V182c-25.5,28.5-24.5,72.5,2.9,100c1.9,1.9,4.4,2.9,6.9,2.9
				c2.7,0,5.1-1.1,6.9-2.9c27.5-27.5,28.4-71.3,2.9-100v-14.9C442.4,155.8,470.4,121,470.8,80z M79.9,259.2
				c-11.3-17.5-11.3-40.4,0-57.8C91.4,219,91.4,241.8,79.9,259.2z M76.1,148.5c-4.4-1.2-8.5-2.8-12.7-4.9l15.7-18.1
				c3.5,1.7,7.1,3.1,10.8,4.1L76.1,148.5z M23.4,78.1c0.4-30.7,20.4-56.9,48.1-67L61,21.9c-5.9,6-10.4,13.1-13.6,20.8
				c-3.2,7.7-4.8,16-4.8,24.4c0,18.5,7.7,35.2,20.3,46.9L47,132.2c-0.8-0.8-1.6-1.5-2.4-2.3C30.7,116.2,23.3,97.7,23.4,78.1z
				 M98.4,151.2l14-19.2h28.8v19.2H98.4z M308.7,219.5l9.7-7.2c0.8,0.8,1.3,1.9,1.9,2.9c0.5,1.3,0.7,2.8,0.5,4.1
				C316.7,219.8,312.7,219.8,308.7,219.5z M153.9,219.3c-0.1-1.3,0-2.8,0.5-4.1c0.4-1.1,1.1-2.1,1.9-2.9l9.7,7.2
				C161.9,219.8,157.9,219.8,153.9,219.3z M296.2,260.8c-0.9,1.6-1.5,3.3-1.5,5.2v50.8c0,8.5-2.9,16.9-8.1,23.7l-9.5,12.1
				c-10.3,13.2-16,29.7-16,46.5v18.7c0,6.9-5.6,12.5-12.5,12.5h-1.5v-42.5c0-5.5-4.4-9.9-9.9-9.9s-9.9,4.4-9.9,9.9v42.5H226
				c-6.9,0-12.5-5.6-12.5-12.5v-18.7c0-16.8-5.7-33.3-16-46.5l-9.5-12.1c-5.2-6.7-8.1-15.2-8.1-23.7V266c0-1.9-0.5-3.6-1.5-5.2
				l-13.2-21.5c6.7-0.4,13.2-1.6,19.6-3.6c0,0.4,0.1,0.7,0.1,0.9c0,1.2-0.3,3.3-2.4,4.9c-4.3,3.3-5.1,9.6-1.6,13.9
				c2,2.5,4.8,3.7,7.7,3.7c2.1,0,4.3-0.7,6.1-2.1c6.4-5.1,10-12.5,9.9-20.7c-0.1-8.1-3.9-15.6-10.4-20.4l-25.9-19.3l6.5-21.5
				c0.9-2.9,0.4-6.3-1.5-8.8s-4.8-4-7.9-4h-4.5v-41l19.2,4.4c4.8,1.1,9.6-1.5,11.3-6c2.1-5.3,6.7-9.2,12.3-10.5s11.3,0.1,15.7,4.1
				c10.1,9.2,25.3,9.2,35.4,0c4.3-3.9,10-5.5,15.7-4.1c5.7,1.3,10.1,5.2,12.3,10.5c1.7,4.5,6.7,7.1,11.3,6l19.2-4.4v41H309
				c-3.1,0-6.1,1.5-7.9,4c-1.9,2.5-2.4,5.7-1.5,8.8l6.5,21.5l-25.9,19.3c-6.5,4.8-10.3,12.3-10.4,20.4s3.5,15.6,9.9,20.7
				c1.9,1.5,4,2.1,6.1,2.1c2.9,0,5.9-1.3,7.7-3.7c3.3-4.3,2.7-10.5-1.6-13.9c-2.1-1.6-2.4-3.7-2.4-4.9c0-0.3,0-0.5,0.1-0.9
				c6.3,2,12.9,3.2,19.6,3.6L296.2,260.8z M394.6,259.2c-11.3-17.5-11.3-40.4,0-57.8C405.9,219,405.9,241.8,394.6,259.2z
				 M384.8,129.6c3.6-1.1,7.2-2.4,10.7-4l15.5,17.9c-3.9,2-8,3.6-12.3,4.8L384.8,129.6z M413.5,21.9l-11.1-11.3
				c10.1,3.6,19.5,9.3,27.3,17.2c13.9,13.9,21.5,32.4,21.2,52c-0.3,20.7-9.3,39.3-23.9,52.4l-15.6-18c0.4-0.4,0.8-0.8,1.2-1.2
				c12.3-12.3,19.1-28.5,19.1-45.8C431.9,50.1,425.4,34,413.5,21.9z M333.3,132h28.8l14.3,19.2h-42.9V132H333.3z"/>
			<path class="st2" d="M247.2,228.4v-77c0-5.5-4.4-9.9-9.9-9.9s-9.9,4.4-9.9,9.9v77c0,5.5,4.4,9.9,9.9,9.9S247.2,233.9,247.2,228.4
				z"/>
		</g>
	</g>
</g>
<g id="Laag_2">
	<g>
		<path class="st3" d="M-96.2,223.1c-0.9,0-1.6,0.7-1.7,1.5c-0.8,6.6-6.3,11.6-13.1,11.6h-126.5c-6.8,0-12.3-5.1-13.1-11.6
			c-0.1-0.9-0.8-1.5-1.7-1.5c-0.9,0-1.7,0.8-1.7,1.7v11.5c0,10.9,8.8,19.7,19.7,19.7h120c10.9,0,19.8-8.8,19.8-19.7v-11.5
			C-94.5,223.8-95.3,223.1-96.2,223.1"/>
		<path class="st4" d="M-139.2,261.6c0-19.7-16.3-35.6-36.1-35.1c-19.1,0.5-34.1,16.7-34.1,35.8v16.5c0,2,1.2,3.8,3.1,4.5l4.7,1.7
			c1.9,0.7,3.1,2.5,3.1,4.5v13.9c0,2,1.2,3.8,3.1,4.5l4.7,1.7c1.9,0.7,3.1,2.5,3.1,4.5v26c0,7.3,5.9,13.2,13.2,13.2
			c7.3,0,13.2-5.9,13.2-13.2v-26c0-2,1.2-3.8,3.1-4.5l4.7-1.7c1.9-0.7,3.1-2.5,3.1-4.5v-13.9c0-2,1.2-3.8,3.1-4.5l4.7-1.7
			c1.9-0.7,3.1-2.5,3.1-4.5V261.6z"/>
		<path class="st5" d="M-205,268.1v9.3c0,1,0.6,1.9,1.6,2.2l5.3,1.9c1.5,0.6,3.2-0.6,3.2-2.2V270c0-1-0.6-1.9-1.6-2.2l-5.3-1.9
			C-203.4,265.3-205,266.5-205,268.1"/>
		<path class="st5" d="M-143.6,268.1v9.3c0,1-0.6,1.9-1.6,2.2l-5.3,1.9c-1.5,0.6-3.2-0.6-3.2-2.2V270c0-1,0.6-1.9,1.6-2.2l5.3-1.9
			C-145.2,265.3-143.6,266.5-143.6,268.1"/>
		<path class="st5" d="M-175.1,319.4l-3.7-3.7c-0.7-0.7-2-0.2-2,0.8v23.2c0,3.3,2.4,6.3,5.7,6.8c4,0.5,7.4-2.6,7.4-6.5v-23.4
			c0-1.1-1.3-1.6-2-0.8l-3.7,3.7C-173.9,319.9-174.6,319.9-175.1,319.4"/>
	</g>
	<g>
		<g>
			<path class="st2" d="M462.1,4.4c-5.7,0-10.5,4.3-11.2,10.1c-1.8,15.9-15.4,28-31.4,28H312.8c-21.6-20-49.6-30.6-79.3-29.8
				c-27,0.7-52.4,11.3-72.2,29.8H53.9c-16.1,0-29.6-12-31.4-28C21.8,8.7,17,4.4,11.3,4.4C5.1,4.4,0,9.5,0,15.7v33.1
				c0,35,28.5,63.4,63.4,63.4h62.1c-0.6,4.8-0.9,9.7-0.9,14.7v49.8c0,8.6,5.5,16.4,13.6,19.4l14.3,5.2c3.1,1.1,5.2,4.1,5.2,7.4v8.7
				c0,8.7,5.5,16.5,13.6,19.4l14.3,5.2c3.1,1.1,5.2,4.1,5.2,7.4v44.9c0,25.4,20.6,46,46,46s46-20.6,46-46v-44.9
				c0-3.3,2.1-6.3,5.2-7.4l14.3-5.2c8.1-3,13.6-10.8,13.6-19.4v-8.7c0-3.3,2.1-6.3,5.2-7.4l14.3-5.2c8.1-3,13.6-10.8,13.6-19.4
				v-51.9c0-4.2-0.2-8.4-0.7-12.5h61.8c35,0,63.4-28.5,63.4-63.4V15.7C473.4,9.5,468.3,4.4,462.1,4.4z M127.9,99.5H63.4
				c-27.9,0-50.7-22.7-50.7-50.7V27.6c6.7,16.4,22.7,27.7,41.2,27.7h95.6C139.1,68.3,131.8,83.4,127.9,99.5z M336,124.7v51.9
				c0,3.3-2.1,6.3-5.2,7.4l-14.3,5.2c-8.1,3-13.6,10.8-13.6,19.4v8.7c0,3.3-2.1,6.3-5.2,7.4l-14.3,5.2c-8.1,3-13.6,10.8-13.6,19.4
				v44.9c0,18.3-14.9,33.3-33.3,33.3s-33.3-14.9-33.3-33.3v-44.9c0-8.7-5.5-16.5-13.6-19.4l-14.3-5.2c-3.1-1.1-5.2-4.1-5.2-7.4v-8.7
				c0-8.7-5.5-16.5-13.6-19.4l-14.3-5.2c-3.1-1.1-5.2-4.1-5.2-7.4v-49.8c0-4.9,0.4-9.8,1-14.7c0.6-4.3,1.5-8.6,2.7-12.8
				c4.4-16,12.7-30.8,24.3-43.1c0.4-0.4,0.7-0.8,1.1-1.2c4.7-4.8,9.8-9.1,15.1-12.8c15.4-10.6,33.4-16.5,52.2-17c0.9,0,1.9,0,2.8,0
				c20.1,0,39.3,5.9,55.6,17c4.8,3.3,9.3,7,13.6,11.1c0.6,0.6,1.1,1.1,1.7,1.7c12.3,12.5,20.9,27.7,25.2,44.3
				c1.1,4.2,1.9,8.4,2.4,12.8C335.7,116.4,336,120.5,336,124.7z M460.6,48.8c0,27.9-22.7,50.7-50.7,50.7h-64
				c-1.5-6.5-3.6-12.9-6.3-19.1c-3.9-9.1-8.9-17.5-15-25.2h94.8c18.5,0,34.5-11.3,41.2-27.7V48.8z"/>
		</g>
		<g>
			<g>
				<path class="st2" d="M164.6,125.6c21.3,0,38.7,17.4,38.7,38.7c0,13-10.6,23.6-23.6,23.6h-1.8c-14.2,0-25.7-11.5-25.7-25.7
					l0-24.1C152.1,131.2,157.7,125.6,164.6,125.6z"/>
			</g>
		</g>
		<g>
			<g>
				<path class="st2" d="M321.1,138l0,24.1c0,14.2-11.5,25.7-25.7,25.7h-1.8c-13,0-23.6-10.6-23.6-23.6c0-21.3,17.4-38.7,38.7-38.7
					C315.5,125.6,321.1,131.2,321.1,138z"/>
			</g>
		</g>
	</g>
	<g>
		<polygon class="st2" points="109.4,50 110.2,108.4 99.4,108.1 99.5,50.7 		"/>
		<polygon class="st2" points="73,50.3 72.5,109.6 61.1,109.9 61.1,50.5 		"/>
		<path class="st2" d="M86.5,62.9c-4.1-0.1-7.3-2.8-7.2-6c0.1-3.3,3.4-5.8,7.4-5.8c4.1,0.1,7.3,0.5,7.3,3.8
			C93.9,58.1,90.6,63,86.5,62.9z"/>
		<path class="st2" d="M86.1,84.2c-4.1-0.1-7.3-2.8-7.3-6c0.1-3.3,3.4-5.8,7.4-5.8c4.1,0.1,7.6,2.5,7.6,5.8
			C93.9,81.5,90.2,84.3,86.1,84.2z"/>
		<path class="st2" d="M85.8,105.6c-4.1-0.1-7.3-2.8-7.3-6c0.1-3.3,3.4-5.8,7.4-5.8c4.1,0.1,7.3,3.9,7.2,7.2
			C93.2,104.2,89.8,105.6,85.8,105.6z"/>
	</g>
	<g>
		<polygon class="st2" points="408.3,50 409,108.4 398.3,108.1 398.4,50.7 		"/>
		<polygon class="st2" points="371.8,50.3 371.3,109.6 359.9,109.9 359.9,50.5 		"/>
		<path class="st2" d="M385.3,62.9c-4.1-0.1-7.3-2.8-7.2-6c0.1-3.3,3.4-5.8,7.4-5.8c4.1,0.1,7.3,0.5,7.3,3.8
			C392.8,58.1,389.4,63,385.3,62.9z"/>
		<path class="st2" d="M385,84.2c-4.1-0.1-7.3-2.8-7.3-6c0.1-3.3,3.4-5.8,7.4-5.8c4.1,0.1,7.6,2.5,7.6,5.8
			C392.7,81.5,389,84.3,385,84.2z"/>
		<path class="st2" d="M384.6,105.6c-4.1-0.1-7.3-2.8-7.3-6c0.1-3.3,3.4-5.8,7.4-5.8c4.1,0.1,7.3,3.9,7.2,7.2
			C392,104.2,388.7,105.6,384.6,105.6z"/>
	</g>
	<g>
		<path class="st2" d="M89.2,115.6v-5.1l-11.6-2.1l0,7.3c-14.9,16.7-14.4,42.5,1.7,58.6c1.1,1.1,2.6,1.7,4.1,1.7
			c1.5,0,3-0.6,4.1-1.7C103.5,158.1,104.1,132.4,89.2,115.6z M83.4,161c-6.7-10.3-6.7-23.6,0-33.9C90.1,137.3,90.1,150.7,83.4,161z"
			/>
	</g>
	<g>
		<path class="st2" d="M384.7,174.2c1.1,1.1,2.6,1.7,4.1,1.7c1.5,0,3-0.6,4.1-1.7c16.1-16.1,16.6-41.8,1.7-58.6v-7.3l-11.6,2.1v5.1
			C368,132.4,368.6,158.1,384.7,174.2z M388.8,127c6.7,10.3,6.7,23.6,0,33.9C382.1,150.7,382.1,137.3,388.8,127z"/>
	</g>
	<g>
		<path class="st2" d="M236.8,301.6c-2.8,0-5.2,2.2-5.2,5.1l-0.3,20.9c0,2.6,1.9,4.8,4.4,5.2c0.2,0,0.4,0,0.6,0
			c2.8,0,5.2-2.2,5.2-5.1l0.3-20.9h0C242,304,239.7,301.7,236.8,301.6z"/>
		<path class="st2" d="M216.5,296.9c-2.8,0-5.2,2.2-5.2,5.1l-0.3,20.9c0,2.6,1.9,4.8,4.4,5.2c0.2,0,0.4,0,0.6,0
			c2.8,0,5.2-2.2,5.2-5.1l0.3-20.9C221.6,299.3,219.4,297,216.5,296.9z"/>
		<path class="st2" d="M257.2,296.9c-2.8,0-5.2,2.2-5.2,5.1l-0.3,20.9c0,2.6,1.9,4.8,4.4,5.2c0.2,0,0.4,0,0.6,0
			c2.8,0,5.2-2.2,5.2-5.1l0.3-20.9C262.3,299.3,260,297,257.2,296.9z"/>
	</g>
	<path class="st2" d="M222.1,239.6L222.1,239.6c3.1-3.3,5.7-4.5,8-3.8c2.3,0.7,1.3,30.4-4.9,28.5c-4.1-1.3-6.8-3.6-8.2-6.9
		c-0.8-2.1-1-4.3-0.6-6.9C217.1,246.5,219,242.9,222.1,239.6"/>
	<path class="st2" d="M251.5,239.6L251.5,239.6c-3.1-3.3-5.7-4.5-8-3.8c-2.3,0.7-1.3,30.4,4.9,28.5c4.1-1.3,6.8-3.6,8.2-6.9
		c0.8-2.1,1-4.3,0.6-6.9C256.5,246.5,254.6,242.9,251.5,239.6"/>
	<g>
		<circle class="st2" cx="236.7" cy="93.8" r="8.1"/>
		<path class="st2" d="M270.4,93.8c0-4.2-3.2-7.7-7.3-8c-2.7-8.7-9.5-15.6-18.2-18.2c-0.4-4.1-3.8-7.3-8-7.3c-4.2,0-7.7,3.2-8,7.3
			c-8.7,2.7-15.6,9.5-18.2,18.2c-4.1,0.4-7.3,3.8-7.3,8c0,4.2,3.2,7.7,7.3,8c2.7,8.7,9.5,15.6,18.2,18.2c0.4,4.1,3.8,7.3,8,7.3
			c4.2,0,7.7-3.2,8-7.3c8.7-2.7,15.6-9.5,18.2-18.2C267.1,101.4,270.4,98,270.4,93.8z M237.7,111.3c-0.3,0-0.7-0.1-1-0.1
			c-0.3,0-0.7,0-1,0.1c-8.9-0.5-16-7.6-16.5-16.5c0-0.3,0.1-0.7,0.1-1s0-0.7-0.1-1c0.5-8.9,7.6-16,16.5-16.5c0.3,0,0.7,0.1,1,0.1
			c0.3,0,0.7,0,1-0.1c8.9,0.5,16,7.6,16.5,16.5c0,0.3-0.1,0.7-0.1,1c0,0.3,0,0.7,0.1,1C253.8,103.7,246.6,110.8,237.7,111.3z"/>
	</g>
</g>
</svg>
