<?xml version="1.0" encoding="utf-8"?>
<!-- Generator: Adobe Illustrator 21.0.2, SVG Export Plug-In . SVG Version: 6.00 Build 0)  -->
<svg version="1.1" id="Laag_1" xmlns="http://www.w3.org/2000/svg" xmlns:xlink="http://www.w3.org/1999/xlink" x="0px" y="0px"
	 viewBox="0 0 473.2 345.3" style="enable-background:new 0 0 473.2 345.3;" xml:space="preserve">
<style type="text/css">
	.st0{fill:#3b8e43;}
</style>
<g>
	<g>
		<path class="st0" d="M458.5,6c-5.7,0-10.4,4.3-11.1,10c-1.8,15.8-15.2,27.7-31.1,27.7H310.7c-21.4-19.8-49.2-30.3-78.5-29.5
			c-26.7,0.7-51.8,11.1-71.5,29.5H54.4c-15.9,0-29.3-11.9-31.1-27.7c-0.7-5.7-5.4-10-11.1-10C6,6,1,11,1,17.2V50
			c0,34.6,28.2,62.8,62.8,62.8h61.5c-0.6,4.8-0.9,9.6-0.9,14.5v49.3c0,8.6,5.4,16.3,13.5,19.2l14.1,5.1c3.1,1.1,5.1,4.1,5.1,7.3v8.6
			c0,8.6,5.4,16.3,13.5,19.2l14.1,5.1c3.1,1.1,5.1,4.1,5.1,7.3V293c0,25.1,20.4,45.6,45.6,45.6s45.6-20.4,45.6-45.6v-44.5
			c0-3.3,2.1-6.2,5.1-7.3l14.1-5.1c8-2.9,13.5-10.7,13.5-19.2v-8.6c0-3.3,2.1-6.2,5.1-7.3l14.1-5.1c8-2.9,13.5-10.7,13.5-19.2v-51.4
			c0-4.2-0.2-8.3-0.7-12.4h61.2c34.6,0,62.8-28.2,62.8-62.8V17.2C469.7,11,464.7,6,458.5,6z M127.6,100.1H63.8
			c-27.7,0-50.2-22.5-50.2-50.2V28.9c6.6,16.2,22.5,27.4,40.7,27.4h94.7C138.8,69.3,131.5,84.2,127.6,100.1z M333.7,125.1v51.4
			c0,3.3-2.1,6.2-5.1,7.3l-14.1,5.1c-8.1,2.9-13.5,10.7-13.5,19.2v8.6c0,3.3-2.1,6.2-5.1,7.3l-14.1,5.1
			c-8.1,2.9-13.5,10.7-13.5,19.2V293c0,18.2-14.8,32.9-32.9,32.9s-32.9-14.8-32.9-32.9v-44.5c0-8.6-5.4-16.3-13.5-19.2l-14.1-5.1
			c-3.1-1.1-5.1-4.1-5.1-7.3v-8.6c0-8.6-5.4-16.3-13.5-19.2l-14.1-5.1c-3.1-1.1-5.1-4.1-5.1-7.3v-49.3c0-4.9,0.3-9.8,1-14.5
			c0.6-4.3,1.5-8.5,2.6-12.6c4.4-15.8,12.6-30.5,24.1-42.7c0.4-0.4,0.7-0.8,1.1-1.2c4.6-4.8,9.7-9,15-12.6
			c15.2-10.4,33-16.3,51.7-16.8c0.9,0,1.9,0,2.8,0c19.9,0,38.9,5.9,55.1,16.9c4.7,3.2,9.3,6.9,13.5,11c0.6,0.5,1.1,1.1,1.7,1.7
			c12.2,12.4,20.7,27.4,24.9,43.8c1.1,4.1,1.9,8.4,2.4,12.6C333.4,116.9,333.7,121,333.7,125.1z M457.1,50
			c0,27.7-22.5,50.2-50.2,50.2h-63.4c-1.5-6.5-3.6-12.8-6.2-18.9c-3.9-9-8.9-17.3-14.9-24.9h93.9c18.3,0,34.2-11.2,40.7-27.4V50z"/>
	</g>
	<g>
		<g>
			<path class="st0" d="M164,125.9c21.1,0,38.3,17.2,38.3,38.3c0,12.9-10.5,23.4-23.4,23.4l-1.8,0c-14.1,0-25.5-11.4-25.5-25.5
				l0-23.9C151.6,131.5,157.2,125.9,164,125.9z"/>
		</g>
	</g>
	<g>
		<g>
			<path class="st0" d="M319,138.3l0,23.9c0,14.1-11.4,25.5-25.5,25.5h-1.8c-12.9,0-23.4-10.5-23.4-23.4c0-21.1,17.2-38.3,38.3-38.3
				C313.4,125.9,319,131.5,319,138.3z"/>
		</g>
	</g>
</g>
<g>
	<polygon class="st0" points="109.4,51.2 110.1,108.9 99.5,108.6 99.6,51.9 	"/>
	<polygon class="st0" points="73.3,51.4 72.8,110.1 61.5,110.5 61.5,51.6 	"/>
	<path class="st0" d="M86.7,63.9c-4-0.1-7.2-2.7-7.2-6c0.1-3.2,3.4-5.8,7.4-5.7c4,0.1,7.3,0.5,7.2,3.7C94,59.2,90.7,64,86.7,63.9z"
		/>
	<path class="st0" d="M86.3,85c-4-0.1-7.2-2.7-7.2-6c0.1-3.2,3.4-5.8,7.4-5.7c4,0.1,7.6,2.5,7.5,5.7C93.9,82.3,90.3,85.1,86.3,85z"
		/>
	<path class="st0" d="M86,106.2c-4-0.1-7.2-2.7-7.2-6c0.1-3.2,3.4-5.8,7.4-5.7c4,0.1,7.2,3.9,7.2,7.1C93.3,104.8,90,106.2,86,106.2z
		"/>
</g>
<g>
	<polygon class="st0" points="405.2,51.2 406,108.9 395.4,108.6 395.4,51.9 	"/>
	<polygon class="st0" points="369.2,51.4 368.7,110.1 357.4,110.5 357.4,51.6 	"/>
	<path class="st0" d="M382.5,63.9c-4-0.1-7.2-2.7-7.2-6c0.1-3.2,3.4-5.8,7.4-5.7c4,0.1,7.3,0.5,7.2,3.7
		C389.9,59.2,386.5,64,382.5,63.9z"/>
	<path class="st0" d="M382.2,85c-4-0.1-7.2-2.7-7.2-6c0.1-3.2,3.4-5.8,7.4-5.7c4,0.1,7.6,2.5,7.5,5.7
		C389.8,82.3,386.2,85.1,382.2,85z"/>
	<path class="st0" d="M381.8,106.2c-4-0.1-7.2-2.7-7.2-6c0.1-3.2,3.4-5.8,7.4-5.7c4,0.1,7.2,3.9,7.2,7.1
		C389.1,104.8,385.8,106.2,381.8,106.2z"/>
</g>
<g>
	<path class="st0" d="M89.3,116.1V111l-11.5-2.1v7.2c-14.8,16.6-14.2,42.1,1.7,58c1.1,1.1,2.5,1.7,4.1,1.7c1.5,0,3-0.6,4.1-1.7
		C103.5,158.2,104.1,132.7,89.3,116.1z M83.6,161c-6.6-10.2-6.6-23.4,0-33.6C90.2,137.6,90.2,150.8,83.6,161z"/>
</g>
<g>
	<path class="st0" d="M381.9,174.1c1.1,1.1,2.5,1.7,4.1,1.7c1.5,0,3-0.6,4.1-1.7c15.9-15.9,16.5-41.4,1.7-58v-7.2l-11.5,2.1v5.1
		C365.4,132.7,366,158.2,381.9,174.1z M385.9,127.4c6.6,10.2,6.6,23.4,0,33.6C379.3,150.8,379.3,137.6,385.9,127.4z"/>
</g>
<g>
	<path class="st0" d="M235.5,300.3c-2.8,0-5.1,2.2-5.2,5l-0.3,20.7c0,2.6,1.9,4.8,4.4,5.1c0.2,0,0.4,0,0.6,0c2.8,0,5.1-2.2,5.2-5
		l0.3-20.7h0C240.6,302.6,238.3,300.3,235.5,300.3z"/>
	<path class="st0" d="M215.4,295.6c-2.8,0-5.1,2.2-5.2,5l-0.3,20.7c0,2.6,1.9,4.8,4.4,5.1c0.2,0,0.4,0,0.6,0c2.8,0,5.1-2.2,5.2-5
		l0.3-20.7C220.5,298,218.2,295.6,215.4,295.6z"/>
	<path class="st0" d="M255.6,295.6c-2.8,0-5.1,2.2-5.2,5l-0.3,20.7c0,2.6,1.9,4.8,4.4,5.1c0.2,0,0.4,0,0.6,0c2.8,0,5.1-2.2,5.2-5
		l0.3-20.7C260.7,298,258.5,295.6,255.6,295.6z"/>
</g>
<path class="st0" d="M220.9,238.9L220.9,238.9c3-3.2,5.7-4.5,7.9-3.8c2.2,0.7,1.3,30.1-4.8,28.2c-4-1.3-6.7-3.5-8.2-6.8
	c-0.8-2-1-4.3-0.6-6.8C216,245.7,217.9,242.1,220.9,238.9"/>
<path class="st0" d="M250,238.9L250,238.9c-3-3.2-5.7-4.5-7.9-3.8c-2.2,0.7-1.3,30.1,4.8,28.2c4-1.3,6.7-3.5,8.2-6.8
	c0.8-2,1-4.3,0.6-6.8C255,245.7,253.1,242.1,250,238.9"/>
<g>
	<circle class="st0" cx="235.4" cy="94.5" r="8"/>
	<path class="st0" d="M268.7,94.5c0-4.2-3.2-7.6-7.3-8c-2.6-8.6-9.5-15.4-18.1-18.1c-0.4-4.1-3.8-7.3-8-7.3c-4.2,0-7.6,3.2-8,7.3
		c-8.6,2.6-15.4,9.5-18.1,18.1c-4.1,0.4-7.3,3.8-7.3,8c0,4.2,3.2,7.6,7.3,8c2.6,8.6,9.5,15.4,18.1,18.1c0.4,4.1,3.8,7.3,8,7.3
		c4.2,0,7.6-3.2,8-7.3c8.6-2.6,15.4-9.5,18.1-18.1C265.5,102.1,268.7,98.6,268.7,94.5z M236.4,111.8c-0.3,0-0.6-0.1-1-0.1
		s-0.7,0-1,0.1c-8.8-0.5-15.9-7.6-16.4-16.4c0-0.3,0.1-0.6,0.1-1c0-0.3,0-0.7-0.1-1c0.5-8.8,7.6-15.9,16.4-16.4c0.3,0,0.6,0.1,1,0.1
		s0.7,0,1-0.1c8.8,0.5,15.9,7.6,16.4,16.4c0,0.3-0.1,0.6-0.1,1c0,0.3,0,0.7,0.1,1C252.3,104.3,245.2,111.3,236.4,111.8z"/>
</g>
</svg>
