<?xml version="1.0" encoding="utf-8"?>
<!-- Generator: Adobe Illustrator 21.0.2, SVG Export Plug-In . SVG Version: 6.00 Build 0)  -->
<svg version="1.1" id="Laag_1" xmlns="http://www.w3.org/2000/svg" xmlns:xlink="http://www.w3.org/1999/xlink" x="0px" y="0px"
	 viewBox="0 0 473.2 473.2" style="enable-background:new 0 0 473.2 473.2;" xml:space="preserve">
<style type="text/css">
	.st0{fill:#323B43;}
</style>
<g id="Capa_1">
	<g>
		<path class="st0" d="M223.2,289.6c-5.5,0-9.9,4.4-9.9,9.9v37.6c0,5.5,4.4,9.9,9.9,9.9s9.9-4.4,9.9-9.9v-37.6
			C233,294,228.7,289.6,223.2,289.6z"/>
		<path class="st0" d="M251.4,289.6c-5.5,0-9.9,4.4-9.9,9.9v37.6c0,5.5,4.4,9.9,9.9,9.9c5.5,0,9.9-4.4,9.9-9.9v-37.6
			C261.3,294,256.9,289.6,251.4,289.6z"/>
		<path class="st0" d="M470.8,93.2c0.3-25.1-9.3-48.5-27.1-66.1C426.4,9.6,403.2,0,378.7,0c-4.5,0-8.7,2.7-10.4,6.9
			c-1.7,4.3-0.8,9.1,2.3,12.3l28.8,29.6c8.3,8.5,12.8,19.6,12.8,31.5c0,12-4.7,23.3-13.2,31.9s-19.9,13.2-31.9,13.2h-33.7v-3.2
			c0-3.1-1.3-5.9-3.7-7.7c-2.4-1.9-5.5-2.5-8.4-1.9l-24,5.5c-5.2-7.5-13.1-12.8-22.1-14.9c-11.9-2.8-24.4,0.5-33.5,8.8
			c-2.5,2.3-6.3,2.3-8.8,0c-9.1-8.3-21.6-11.5-33.5-8.8c-9.1,2.3-16.9,7.6-22.1,15.1l-24-5.5c-2.9-0.7-6,0-8.4,1.9
			c-2.4,1.9-3.7,4.7-3.7,7.7v3.2h-33.7c-24.9,0-45.2-20.3-45.2-45.2c0-5.9,1.1-11.6,3.3-16.9c2.3-5.5,5.3-10.3,9.5-14.5l29.6-30.4
			c3.1-3.2,3.9-7.7,2.3-11.9c-1.7-4-5.6-6.7-10-6.7c-50.8,0-92.6,40.8-93.3,91c-0.3,25.1,9.2,48.5,26.9,66.2
			c11.2,11.2,24.7,19.1,39.4,23.3v14.7c-25.5,28.5-24.5,72.5,2.9,100c1.9,1.9,4.4,2.9,6.9,2.9s5.1-1.1,6.9-2.9
			c27.5-27.5,28.4-71.3,2.9-100v-11.2c1.9,0.1,3.9,0.3,5.9,0.3h45.6v1.3c0,5.5,4.4,9.9,9.9,9.9h0.8l-3.3,11.1
			c-5.9,3.3-10.5,8.7-12.8,15.2c-3.1,8.3-2.1,17.3,2.5,24.8l21.7,35.4v48c0,12.9,4.4,25.7,12.4,35.8l9.5,12.1
			c7.6,9.7,11.9,21.9,11.9,34.3v18.7c0,17.9,14.5,32.3,32.3,32.3h22.5c17.9,0,32.3-14.5,32.3-32.3v-18.7c0-12.4,4.3-24.5,11.9-34.3
			l9.5-12.1c8-10.1,12.4-22.9,12.4-35.8v-48l21.7-35.4c4.7-7.5,5.5-16.5,2.5-24.8c-2.4-6.5-6.9-11.9-12.8-15.2l-3.3-11.1h0.8
			c5.5,0,9.9-4.4,9.9-9.9v-1.3h44.6c2.3,0,4.5-0.1,6.8-0.3v11.2c-25.5,28.5-24.5,72.5,2.9,100c1.9,1.9,4.4,2.9,6.9,2.9
			c2.7,0,5.1-1.1,6.9-2.9c27.5-27.5,28.4-71.3,2.9-100v-14.9C442.4,169,470.4,134.2,470.8,93.2z M79.9,272.4
			c-11.3-17.5-11.3-40.4,0-57.8C91.4,232.2,91.4,255,79.9,272.4z M76.1,161.7c-4.4-1.2-8.5-2.8-12.7-4.9l15.7-18.1
			c3.5,1.7,7.1,3.1,10.8,4.1L76.1,161.7z M23.4,91.3c0.4-30.7,20.4-56.9,48.1-67L61,35.1c-5.9,6-10.4,13.1-13.6,20.8
			c-3.2,7.7-4.8,16-4.8,24.4c0,18.5,7.7,35.2,20.3,46.9L47,145.4c-0.8-0.8-1.6-1.5-2.4-2.3C30.7,129.4,23.3,110.9,23.4,91.3z
			 M98.4,164.4l14-19.2h28.8v19.2H98.4z M308.7,232.7l9.7-7.2c0.8,0.8,1.3,1.9,1.9,2.9c0.5,1.3,0.7,2.8,0.5,4.1
			C316.7,233,312.7,233,308.7,232.7z M153.9,232.5c-0.1-1.3,0-2.8,0.5-4.1c0.4-1.1,1.1-2.1,1.9-2.9l9.7,7.2
			C161.9,233,157.9,233,153.9,232.5z M296.2,274c-0.9,1.6-1.5,3.3-1.5,5.2V330c0,8.5-2.9,16.9-8.1,23.7l-9.5,12.1
			c-10.3,13.2-16,29.7-16,46.5V431c0,6.9-5.6,12.5-12.5,12.5h-1.5V401c0-5.5-4.4-9.9-9.9-9.9s-9.9,4.4-9.9,9.9v42.5H226
			c-6.9,0-12.5-5.6-12.5-12.5v-18.7c0-16.8-5.7-33.3-16-46.5l-9.5-12.1c-5.2-6.7-8.1-15.2-8.1-23.7v-50.8c0-1.9-0.5-3.6-1.5-5.2
			l-13.2-21.5c6.7-0.4,13.2-1.6,19.6-3.6c0,0.4,0.1,0.7,0.1,0.9c0,1.2-0.3,3.3-2.4,4.9c-4.3,3.3-5.1,9.6-1.6,13.9
			c2,2.5,4.8,3.7,7.7,3.7c2.1,0,4.3-0.7,6.1-2.1c6.4-5.1,10-12.5,9.9-20.7c-0.1-8.1-3.9-15.6-10.4-20.4l-25.9-19.3l6.5-21.5
			c0.9-2.9,0.4-6.3-1.5-8.8c-1.9-2.5-4.8-4-7.9-4h-4.5v-41l19.2,4.4c4.8,1.1,9.6-1.5,11.3-6c2.1-5.3,6.7-9.2,12.3-10.5
			c5.6-1.3,11.3,0.1,15.7,4.1c10.1,9.2,25.3,9.2,35.4,0c4.3-3.9,10-5.5,15.7-4.1c5.7,1.3,10.1,5.2,12.3,10.5c1.7,4.5,6.7,7.1,11.3,6
			l19.2-4.4v41h-4.3c-3.1,0-6.1,1.5-7.9,4c-1.9,2.5-2.4,5.7-1.5,8.8l6.5,21.5l-25.9,19.3c-6.5,4.8-10.3,12.3-10.4,20.4
			c-0.1,8.1,3.5,15.6,9.9,20.7c1.9,1.5,4,2.1,6.1,2.1c2.9,0,5.9-1.3,7.7-3.7c3.3-4.3,2.7-10.5-1.6-13.9c-2.1-1.6-2.4-3.7-2.4-4.9
			c0-0.3,0-0.5,0.1-0.9c6.3,2,12.9,3.2,19.6,3.6L296.2,274z M394.6,272.4c-11.3-17.5-11.3-40.4,0-57.8
			C405.9,232.2,405.9,255,394.6,272.4z M384.8,142.8c3.6-1.1,7.2-2.4,10.7-4l15.5,17.9c-3.9,2-8,3.6-12.3,4.8L384.8,142.8z
			 M413.5,35.1l-11.1-11.3c10.1,3.6,19.5,9.3,27.3,17.2c13.9,13.9,21.5,32.4,21.2,52c-0.3,20.7-9.3,39.3-23.9,52.4l-15.6-18
			c0.4-0.4,0.8-0.8,1.2-1.2c12.3-12.3,19.1-28.5,19.1-45.8C431.9,63.3,425.4,47.2,413.5,35.1z M333.3,145.2h28.8l14.3,19.2h-42.9
			v-19.2H333.3z"/>
		<path class="st0" d="M247.2,241.6v-77c0-5.5-4.4-9.9-9.9-9.9s-9.9,4.4-9.9,9.9v77c0,5.5,4.4,9.9,9.9,9.9S247.2,247.1,247.2,241.6z
			"/>
	</g>
</g>
</svg>
